<svg xmlns="http://www.w3.org/2000/svg" width="240" height="240" viewBox="0 0 240 240" version="1.1" id="Youtube-Clip-Logo--Streamline-Logos.svg">
	<path d="M110.16 43.14416C91.32112 43.27808 70.69696 43.98784 54.800000000000004 45.04928C48.90096 45.4432 45.9376 45.96592 42.02928 47.30192C30.16016 51.35888 20.80224 61.14192 17.37312 73.07776C16.35808 76.61088 16.12896 78.25072 15.61152 85.68C13.93472 109.75616000000001 13.98368 132.26544 15.76576 156.5048C15.98352 159.4664 16.31232 162.7784 16.49664 163.8648C19.18224 179.70288000000002 31.902240000000003 192.12063999999998 47.84 194.46367999999998C51.20048 194.95776 67.38528000000001 195.83872 81.92 196.31888C103.17824 197.02112000000002 136.65808 197.02144 158.08 196.31968C172.62896 195.84304 188.70848 194.96671999999998 192.16 194.46223999999998C205.52560000000003 192.50896 216.94784 183.3048 221.65792000000002 170.6928C223.18975999999998 166.59072 223.69872 163.7888 224.23376000000002 156.512C225.98192 132.73216 226.06032 109.98559999999999 224.4736 86.8C224.02928 80.30848 223.87328000000002 78.76895999999999 223.42352 76.44352C220.29296 60.25216 207.07824000000002 47.831360000000004 190.52880000000002 45.5248C187.10528 45.04768 172.768 44.238080000000004 159.36 43.76496C146.48096 43.3104 124.96304 43.03888 110.16 43.14416M105.52 53.21584C90.30224 53.43552 75.03904 53.92832000000001 63.76 54.56432C51.076480000000004 55.27936 49.52832000000001 55.459520000000005 45.72368 56.663360000000004C43.945600000000006 57.22608 40.60992 58.80688 38.96 59.8688C36.56176 61.41232 33.63584 64.08928 31.908800000000003 66.32000000000001C28.78144 70.35968 26.70528 75.44544 26.09584 80.56C25.66528 84.17392 24.951999999999998 96.4288 24.6384 105.60000000000001C24.42368 111.8824 24.42304 127.95920000000001 24.63728 134.24C24.96496 143.84688 25.819200000000002 158.08736000000002 26.258560000000003 161.26944C27.4808 170.12192 32.98736 177.83584 40.93264 181.82624C43.56528 183.14848000000003 45.807520000000004 183.90687999999997 48.480000000000004 184.37872C52.522560000000006 185.09279999999998 71.89664 186.05184000000003 93.12 186.58848000000003C108.94256 186.98864 142.34928 186.81104 159.12 186.2376C171.10784 185.82784 185.69232 185.06495999999999 189.7048 184.63792C194.77584 184.09824 199.8248 181.99872 203.85184 178.75536C209.24527999999998 174.41152 212.76368 168.14912 213.75984 161.12C214.16992 158.22656 215.06192 143.36992 215.36400000000003 134.4C215.57616000000002 128.1048 215.57488 112.04944 215.36176 105.68C215.06288 96.74288000000001 214.33024 84.10704 213.90511999999998 80.56C213.29232000000002 75.44624 211.30704000000003 70.55087999999999 208.19552 66.48C203.74176 60.65344 196.70224 56.55008 189.37792000000002 55.5112C184.83328000000003 54.86656 164.37776000000002 53.869440000000004 146.8 53.43552C140.37727999999998 53.277120000000004 111.81120000000001 53.12496 105.52 53.21584M98.9744 86.63632C97.85296000000001 87.09744 96.93280000000001 87.93888000000001 96.34624 89.04L95.92 89.84 95.92 120L95.92 150.16 96.39456 151.01680000000002C97.56335999999999 153.12688 99.95360000000001 154.19312 102.1488 153.58368000000002C103.22912000000001 153.28368 156.15248 124.33008 156.93424000000002 123.61120000000001C157.31616 123.26016 157.81727999999998 122.60992 158.04784 122.1664C158.40464 121.48016 158.46672 121.15728 158.46544 120C158.46336 118.3464 158.10544000000002 117.48528 156.98688 116.44384000000001C156.43328 115.92832 149.32192 111.97536000000001 129.5088 101.16959999999999C114.80672000000001 93.15136000000001 102.49472 86.51232 102.1488 86.41632C101.13216 86.13408 100.00624 86.21216000000001 98.9744 86.63632M105.92 120C105.92 131.088 105.95632 140.16 106.0008 140.16C106.1576 140.16 142.88 120.08576 142.88 120C142.88 119.91424 106.1576 99.84 106.0008 99.84C105.95632 99.84 105.92 108.912 105.92 120" stroke="none" fill="#000000" fill-rule="evenodd"></path>
</svg>